<?xml version="1.0" standalone="no"?>
<!DOCTYPE svg PUBLIC "-//W3C//DTD SVG 20010904//EN"
 "http://www.w3.org/TR/2001/REC-SVG-20010904/DTD/svg10.dtd">
<svg version="1.0" xmlns="http://www.w3.org/2000/svg"
 width="697.000000pt" height="108.000000pt" viewBox="0 0 697.000000 108.000000"
 preserveAspectRatio="xMidYMid meet">

<g transform="translate(0.000000,108.000000) scale(0.100000,-0.100000)"
fill="#000000" stroke="none">
<path d="M2640 895 c0 -33 2 -35 35 -35 33 0 35 2 35 35 0 33 -2 35 -35 35
-33 0 -35 -2 -35 -35z"/>
<path d="M6630 830 l0 -100 -65 0 -65 0 0 -35 0 -35 65 0 65 0 0 -168 0 -168
28 -27 c22 -21 38 -27 71 -27 42 0 42 0 39 32 -3 29 -7 33 -35 36 l-33 3 0
160 0 159 65 0 65 0 0 35 0 35 -65 0 -65 0 0 100 0 100 -35 0 -35 0 0 -100z"/>
<path d="M170 499 l0 -229 35 0 35 0 0 178 c0 161 2 181 18 195 24 22 65 21
85 -1 15 -16 17 -45 17 -195 l0 -177 35 0 35 0 0 173 c1 153 3 174 19 195 25
28 62 28 89 -1 21 -22 22 -32 22 -195 l0 -172 30 0 30 0 0 193 0 193 -38 37
c-33 33 -44 37 -88 37 -41 0 -55 -5 -74 -25 l-24 -25 -26 25 c-23 22 -33 24
-113 24 l-87 0 0 -230z"/>
<path d="M740 696 c0 -28 4 -35 23 -38 22 -3 22 -4 25 -195 l2 -193 35 0 35 0
0 143 0 143 53 52 c40 40 60 52 83 52 31 0 64 -25 64 -48 0 -7 15 -12 35 -12
30 0 35 3 35 23 0 14 -17 40 -43 65 -40 39 -47 42 -97 42 -49 0 -58 -4 -92
-37 -21 -20 -38 -31 -38 -25 0 27 -48 62 -85 62 -33 0 -35 -2 -35 -34z"/>
<path d="M1352 687 l-42 -43 0 -151 0 -152 44 -35 43 -36 115 0 116 0 36 40
36 40 0 146 0 146 -36 44 -36 44 -117 0 -117 0 -42 -43z m260 -44 c16 -14 18
-33 18 -141 0 -115 -2 -128 -22 -149 -19 -20 -31 -23 -102 -23 -68 0 -83 3
-103 22 -22 20 -23 29 -23 146 0 162 0 162 123 162 70 0 95 -4 109 -17z"/>
<path d="M1880 695 l0 -34 156 -3 157 -3 -143 -175 c-79 -96 -150 -183 -158
-192 -14 -17 -3 -18 217 -18 l232 0 -3 32 -3 33 -158 3 -158 3 147 182 c81
100 152 188 157 195 7 9 -37 12 -217 12 l-226 0 0 -35z"/>
<path d="M2640 500 l0 -230 35 0 35 0 0 230 0 230 -35 0 -35 0 0 -230z"/>
<path d="M3092 657 c-71 -71 -72 -73 -72 -125 0 -51 1 -53 73 -127 l72 -75 60
0 c56 0 61 2 102 42 l43 42 0 -85 c0 -111 -8 -119 -112 -119 -67 0 -77 3 -98
25 l-24 25 -23 -22 -23 -22 37 -38 37 -38 101 0 101 0 37 38 37 38 0 214 0
214 -42 43 -42 43 -96 0 -96 0 -72 -73z m260 -14 c14 -12 18 -31 18 -77 0 -59
-1 -61 -52 -113 -72 -73 -102 -73 -175 -1 -69 68 -69 86 -1 155 l52 53 70 0
c51 0 74 -4 88 -17z"/>
<path d="M3632 687 l-42 -43 0 -151 0 -152 44 -35 43 -36 115 0 116 0 36 40
36 40 0 146 0 146 -36 44 -36 44 -117 0 -117 0 -42 -43z m260 -44 c16 -14 18
-33 18 -141 0 -115 -2 -128 -22 -149 -19 -20 -31 -23 -102 -23 -68 0 -83 3
-103 22 -22 20 -23 29 -23 146 0 162 0 162 123 162 70 0 95 -4 109 -17z"/>
<path d="M4160 696 c0 -28 4 -35 23 -38 22 -3 22 -4 25 -195 l2 -193 35 0 35
0 0 143 0 143 53 52 c40 40 60 52 83 52 31 0 64 -25 64 -48 0 -7 15 -12 35
-12 30 0 35 3 35 23 0 14 -17 40 -43 65 -40 39 -47 42 -97 42 -49 0 -58 -4
-92 -37 -21 -20 -38 -31 -38 -25 0 27 -48 62 -85 62 -33 0 -35 -2 -35 -34z"/>
<path d="M5300 700 c0 -25 4 -30 23 -30 44 0 47 -13 47 -212 l0 -188 30 0 30
0 0 172 0 172 27 28 c22 23 35 28 73 28 38 0 51 -5 73 -28 l27 -28 0 -172 0
-172 30 0 30 0 0 190 0 190 -36 40 -36 40 -88 0 c-66 0 -91 -4 -100 -15 -12
-14 -15 -14 -30 0 -9 8 -35 15 -58 15 -40 0 -42 -1 -42 -30z"/>
<path d="M5911 685 l-41 -45 0 -142 0 -142 42 -43 42 -43 153 0 153 0 0 30 0
30 -138 0 c-132 0 -140 1 -160 23 -15 16 -22 36 -22 65 l0 42 160 0 160 0 0
90 0 90 -41 45 -42 45 -112 0 -112 0 -42 -45z m263 -50 c9 -13 16 -42 16 -65
l0 -40 -125 0 -125 0 0 42 c0 29 7 49 22 65 19 21 30 23 109 23 81 0 88 -2
103 -25z"/>
<path d="M4860 335 l0 -65 65 0 65 0 0 65 0 65 -65 0 -65 0 0 -65z"/>
</g>
</svg>
